<svg width="464" height="339" viewBox="0 0 464 339" fill="none" xmlns="http://www.w3.org/2000/svg">
<path d="M406.48 263.333C276.347 327.512 84.5981 341.745 23.3003 269.721C-47.5014 186.546 63.8122 85.5779 166.011 132.444C233.927 163.58 322.959 158.421 379.311 149.743C474.844 135.016 494.923 219.717 406.48 263.333Z" fill="url(#paint0_radial_118_5)"/>
<path d="M166.597 54.2058L165.222 56.5011L166.178 57.3259L167.553 55.0307L166.597 54.2058Z" fill="#908D89"/>
<path d="M220.125 103.782L218.123 102.057L219.489 99.7677L221.491 101.492L220.125 103.782ZM214.13 98.6229L212.128 96.8986L213.506 94.609L215.508 96.3333L214.13 98.6229ZM208.136 93.4642L206.134 91.74L207.5 89.4504L209.502 91.1746L208.136 93.4642ZM202.142 88.3056L200.14 86.5813L201.518 84.2917L203.52 86.016L202.142 88.3056ZM196.159 83.1328L194.157 81.4085L195.523 79.1189L197.525 80.8432L196.159 83.1328ZM190.165 77.9741L188.163 76.2498L189.541 73.9602L191.543 75.6845L190.165 77.9741ZM184.17 72.8154L182.168 71.0912L183.534 68.8016L185.536 70.5258L184.17 72.8154ZM178.176 67.6568L176.174 65.9325L177.552 63.6429L179.554 65.3672L178.176 67.6568ZM172.182 62.484L170.18 60.7597L171.546 58.4701L173.548 60.1944L172.182 62.484Z" fill="#908D89"/>
<path d="M225.5 104.929L224.127 107.226L225.084 108.05L226.457 105.753L225.5 104.929Z" fill="#908D89"/>
<path d="M251.769 92.2347L249.413 92.0933L249.531 89.2667L251.887 89.408L251.769 92.2347ZM252.11 83.7547L249.755 83.6133L249.873 80.7867L252.228 80.928L252.11 83.7547ZM252.452 75.2888L250.097 75.1475L250.214 72.3208L252.57 72.4621L252.452 75.2888Z" fill="#908D89"/>
<path d="M283.024 93.1675L281.587 90.9344L283.448 89.2101L284.885 91.4432L283.024 93.1675ZM288.618 87.9947L287.181 85.7616L289.042 84.0373L290.479 86.2704L288.618 87.9947ZM294.212 82.8219L292.775 80.5888L294.648 78.8645L296.085 81.0976L294.212 82.8219ZM299.818 77.6491L298.381 75.416L300.242 73.6917L301.679 75.9248L299.818 77.6491ZM305.412 72.4763L303.975 70.2432L305.836 68.5189L307.273 70.752L305.412 72.4763ZM311.006 67.3035L309.569 65.0704L311.442 63.3461L312.878 65.5792L311.006 67.3035ZM316.611 62.1307L315.175 59.8976L317.035 58.1733L318.472 60.4064L316.611 62.1307Z" fill="#908D89"/>
<path d="M285.333 121.151L284.873 118.381L287.181 117.83L287.641 120.6L285.333 121.151ZM292.257 119.512L291.798 116.742L294.106 116.191L294.565 118.961L292.257 119.512ZM299.194 117.858L298.734 115.088L301.043 114.537L301.502 117.307L299.194 117.858ZM306.118 116.219L305.659 113.449L307.967 112.898L308.427 115.668L306.118 116.219ZM313.055 114.565L312.596 111.795L314.904 111.244L315.363 114.014L313.055 114.565ZM319.991 112.926L319.532 110.156L321.84 109.605L322.3 112.375L319.991 112.926ZM326.916 111.272L326.457 108.502L328.765 107.951L329.224 110.721L326.916 111.272ZM333.853 109.633L333.393 106.863L335.702 106.311L336.161 109.082L333.853 109.633ZM340.789 107.979L340.33 105.209L342.638 104.658L343.097 107.428L340.789 107.979ZM347.714 106.326L347.255 103.555L349.563 103.004L350.022 105.774L347.714 106.326ZM354.65 104.686L354.191 101.916L356.499 101.365L356.959 104.135L354.65 104.686ZM361.575 103.033L361.116 100.262L363.424 99.7112L363.883 102.481L361.575 103.033ZM368.512 101.393L368.052 98.623L370.361 98.0718L370.82 100.842L368.512 101.393ZM375.436 99.7395L374.977 96.9693L377.285 96.4181L377.745 99.1883L375.436 99.7395ZM382.373 98.1L381.913 95.3299L384.222 94.7787L384.681 97.5488L382.373 98.1Z" fill="#908D89"/>
<path d="M223.34 122.706L221.208 122.014L221.821 119.286L223.952 119.978L223.34 122.706ZM216.662 120.544L214.389 119.809L215.002 117.081L217.275 117.816L216.662 120.544ZM209.844 118.325L207.571 117.59L208.183 114.862L210.456 115.597L209.844 118.325ZM203.025 116.106L200.752 115.371L201.364 112.643L203.637 113.378L203.025 116.106ZM196.206 113.887L193.933 113.152L194.546 110.424L196.819 111.159L196.206 113.887ZM189.387 111.668L187.115 110.933L187.727 108.205L190 108.94L189.387 111.668ZM182.557 109.449L180.284 108.714L180.896 105.986L183.169 106.721L182.557 109.449ZM175.738 107.23L173.465 106.495L174.078 103.767L176.351 104.502L175.738 107.23ZM168.92 105.011L166.647 104.276L167.259 101.548L169.532 102.283L168.92 105.011ZM162.101 102.792L159.828 102.057L160.44 99.3295L162.713 100.064L162.101 102.792ZM155.282 100.573L153.009 99.8383L153.622 97.1106L155.894 97.8455L155.282 100.573ZM148.463 98.3543L146.19 97.6194L146.803 94.8917L149.076 95.6266L148.463 98.3543ZM141.645 96.1354L139.372 95.4005L139.984 92.6727L142.257 93.4077L141.645 96.1354ZM134.826 93.9165L132.553 93.1815L133.165 90.4538L135.438 91.1887L134.826 93.9165ZM127.995 91.6975L125.722 90.9626L126.335 88.2349L128.608 88.9698L127.995 91.6975ZM121.177 89.4786L118.904 88.7437L119.516 86.0159L121.789 86.7509L121.177 89.4786ZM114.358 87.2597L112.085 86.5247L112.697 83.797L114.97 84.5319L114.358 87.2597ZM107.539 85.0407L105.266 84.3058L105.879 81.5781L108.152 82.313L107.539 85.0407ZM100.72 82.8218L98.4476 82.0869L99.06 79.3591L101.333 80.0941L100.72 82.8218Z" fill="#908D89"/>
<path d="M189.552 243.419C188.716 239.292 185.419 233.398 176.987 233.738L173.618 234.02L173.465 233.879L171.569 234.19L95.6094 240.437C89.0615 240.437 83.3851 245.398 81.8306 252.493L67.2628 326.82H72.209L86.5059 253.765C87.3068 250.132 89.3324 248.224 92.1352 247.73C103.146 247.73 114.923 248.436 122.39 248.917C121.035 251.63 120.023 255.164 119.516 259.955L117.82 308.136H122.625L124.297 260.478C124.792 255.234 126.288 251.744 128.172 249.284C128.396 249.298 128.62 249.313 128.808 249.313C128.914 249.313 129.008 249.298 129.114 249.298C134.673 250.472 139.548 252.945 140.714 260.718L147.874 338.791H152.691L146.002 260.676C145.342 253.864 141.821 248.719 136.133 245.921L177.67 238.995C180.991 238.812 183.888 240.861 184.971 244.96L204.049 319.343L208.124 316.813L189.552 243.419Z" fill="#C8C6C4"/>
<path d="M114.794 236.31C114.794 236.31 93.5956 242.741 82.9023 242.741C72.2208 242.741 66.9095 231.349 64.1537 213.598C61.398 195.846 56.0749 142.337 58.9837 126.819C61.0565 115.767 67.251 111.428 77.591 111.046C83.7855 110.806 97.5761 110.255 110.33 112.629C123.084 114.989 131.776 136.896 139.619 151.284C163.055 194.277 178.353 222.106 178.353 222.106L114.794 236.31Z" fill="url(#paint1_radial_118_5)"/>
<path d="M180.237 234.006L113.31 244.536C108.199 244.536 73.0569 238.062 73.0569 231.957V226.459C73.0569 220.353 91.829 216.481 96.9519 216.481L180.249 206.39C185.36 206.39 189.505 211.336 189.505 217.442V222.94C189.493 229.06 185.348 234.006 180.237 234.006Z" fill="url(#paint2_linear_118_5)"/>
<path d="M209.596 178.278C208.843 178.872 190.871 192.878 173.677 185.628C163.738 181.444 156.318 171.268 151.62 155.382L160.699 151.015C164.338 163.297 169.744 171.028 176.775 174.01C189.599 179.451 204.367 168.046 204.509 167.933L209.596 178.278Z" fill="#8A6FE8"/>
<path d="M149.935 244.21C151.525 234.557 153.362 214.658 147.156 196.256L137.676 200.27C143.305 216.961 141.209 234.487 139.843 242.048C139.737 242.67 144.777 244.394 149.935 244.21Z" fill="url(#paint3_linear_118_5)"/>
<path d="M139.866 241.949L147.804 243.673L147.71 293.677L131.787 290.2C130.574 289.932 129.833 288.617 130.127 287.246L139.866 241.949Z" fill="#522CD5"/>
<path d="M166.647 284.745C167.824 286.285 167.53 288.08 167.129 289.946L165.905 295.67C165.681 296.687 164.762 297.366 163.844 297.168L147.25 293.55C146.214 293.324 145.59 292.207 145.837 291.034L146.885 285.056C147.345 282.907 146.826 281.96 145.672 279.572C143.682 275.487 139.148 254.669 141.798 242.359L149.971 244.14C149.335 251.673 155.353 270.018 166.647 284.745Z" fill="url(#paint4_linear_118_5)"/>
<path d="M167.118 289.946C167.4 288.646 167.612 287.374 167.33 286.215L146.626 281.706C147.05 282.794 147.156 283.685 146.862 285.07L145.814 291.048C145.566 292.207 146.202 293.338 147.227 293.55L163.82 297.168C164.727 297.366 165.657 296.687 165.881 295.67L167.118 289.946Z" fill="url(#paint5_radial_118_5)"/>
<path d="M118.963 239.052C127.171 228.254 132.223 222.007 131.988 218.912C131.929 218.134 131.128 216.58 127.619 213.541C124.651 210.969 121.2 208.057 121.2 208.043L127.383 198.531C127.383 198.531 130.869 201.485 133.872 204.086C137.876 207.549 141.656 211.577 142.092 217.513C142.705 225.668 139.266 230.049 127.159 245.977L118.963 239.052Z" fill="url(#paint6_linear_118_5)"/>
<path d="M178.647 157.856C180.06 141.532 176.009 129.434 176.009 129.434L179.248 128.854L179.318 128.769C170.698 100.842 145.566 83.0198 118.998 87.811C89.0615 93.2099 68.6289 125.25 73.3631 159.382C78.0974 193.514 106.208 216.806 136.145 211.407C159.769 207.153 177.469 186.292 181.556 160.923C181.627 159.863 181.356 158.025 178.647 157.856Z" fill="url(#paint7_radial_118_5)"/>
<path d="M178.753 172.455L85.1516 189.331C87.8132 193.019 90.828 196.327 94.1255 199.224L172.877 185.02C175.255 181.105 177.222 176.893 178.753 172.455Z" fill="#D8CFF7"/>
<path d="M151.926 192.242L169.497 189.076L167.035 171.367L149.476 174.533L151.926 192.242Z" fill="#512BD4"/>
<path d="M154.081 185.091C153.963 185.105 153.857 185.091 153.763 185.006C153.669 184.935 153.61 184.822 153.598 184.709C153.586 184.582 153.61 184.469 153.68 184.356C153.751 184.257 153.845 184.186 153.963 184.172C154.081 184.158 154.187 184.172 154.281 184.257C154.375 184.327 154.434 184.441 154.446 184.568C154.458 184.695 154.434 184.808 154.363 184.921C154.293 185.006 154.199 185.062 154.081 185.091Z" fill="white"/>
<path d="M158.744 184.186L157.979 184.327L155.482 181.077C155.423 180.992 155.365 180.907 155.317 180.822H155.306C155.341 180.921 155.376 181.147 155.423 181.487L155.859 184.695L155.188 184.808L154.517 179.904L155.329 179.762L157.743 182.928C157.849 183.055 157.908 183.154 157.944 183.197H157.955C157.92 183.07 157.873 182.858 157.838 182.547L157.402 179.395L158.073 179.282L158.744 184.186Z" fill="white"/>
<path d="M162.018 183.607L159.663 184.031L158.992 179.126L161.253 178.731L161.347 179.423L159.781 179.706L159.969 181.091L161.406 180.836L161.5 181.529L160.063 181.783L160.264 183.225L161.924 182.928L162.018 183.607Z" fill="white"/>
<path d="M164.786 178.801L163.585 179.013L164.162 183.225L163.467 183.352L162.89 179.14L161.689 179.353L161.594 178.66L164.692 178.109L164.786 178.801Z" fill="white"/>
<path d="M178.765 157.827C180.155 141.701 176.233 129.716 176.127 129.419L119.893 139.553C119.893 139.553 116.289 139.779 116.807 143.468C117.314 147.157 118.904 157.559 120.494 169.092C120.823 171.466 122.684 172.3 124.027 172.06C124.027 172.06 177.705 160.64 178.765 157.827Z" fill="url(#paint8_radial_118_5)"/>
<path d="M145.213 163.905C145.213 163.905 152.774 154.534 154.269 152.796C155.753 151.043 157.225 150.704 158.98 151.948C160.735 153.192 170.474 159.354 170.474 159.354L145.213 163.905Z" fill="#A08BE8"/>
<path d="M181.438 161.742C181.438 161.742 182.592 158.082 178.765 157.827C178.765 157.813 123.461 167.749 123.461 167.749C122.178 167.975 120.399 167.41 120.058 166.011C120.199 167.028 120.34 168.06 120.494 169.106C120.788 171.254 122.354 172.144 123.638 172.102C123.768 172.102 123.897 172.088 124.027 172.06L127.807 171.381L181.438 161.742Z" fill="#512BD4"/>
<path d="M136.329 159.378C138.653 158.837 139.952 154.777 139.23 150.309C138.508 145.842 136.039 142.659 133.714 143.2C131.39 143.741 130.091 147.801 130.813 152.269C131.535 156.736 134.005 159.919 136.329 159.378Z" fill="#512BD4"/>
<path d="M134.425 147.228C135.156 146.083 136.263 145.433 137.405 145.348C138.265 146.648 138.936 148.415 139.254 150.45C139.442 151.722 139.478 152.937 139.36 154.068C138.076 154.746 136.534 154.633 135.309 153.616C133.519 152.132 133.118 149.263 134.425 147.228Z" fill="#8065E0"/>
<path d="M210.892 156.965L197.89 166.83C195.747 168.456 195.005 171.848 196.23 174.406L196.454 174.858C197.678 177.416 200.422 178.165 202.566 176.54L215.567 166.675C217.711 165.05 218.452 161.658 217.228 159.099L217.004 158.647C215.767 156.089 213.035 155.34 210.892 156.965Z" fill="#8A6FE8"/>
<path d="M204.179 188.101L213.447 191.309C215.92 192.143 218.488 190.278 219.171 187.154C219.854 184.017 218.405 180.808 215.932 179.974L206.428 176.681L204.179 188.101Z" fill="#8A6FE8"/>
<path d="M208.56 184.497L221.703 181.826C224.235 181.303 225.978 178.278 225.577 175.084C225.189 171.89 222.81 169.728 220.266 170.251L210.491 172.201L208.56 184.497Z" fill="#8A6FE8"/>
<path d="M207.783 181.02L220.137 174.66C222.527 173.431 223.693 170.01 222.739 167.014C221.797 164.018 219.088 162.576 216.698 163.792L204.12 170.265L207.783 181.02Z" fill="#8A6FE8"/>
<path d="M195.617 169.36C198.679 163.749 204.744 162.308 209.161 166.124C213.577 169.94 214.672 177.586 211.598 183.197C208.536 188.808 202.471 190.249 198.055 186.433C193.651 182.603 192.555 174.957 195.617 169.36Z" fill="url(#paint9_radial_118_5)"/>
<path d="M113.298 85.2386L123.414 83.373L118.845 62.7524L111.579 64.081L113.298 85.2386Z" fill="#8A6FE8"/>
<path d="M118.185 71.3455C114.652 73.1122 110.519 71.3173 108.941 67.3175C107.374 63.3319 108.952 58.6821 112.497 56.9154C116.03 55.1487 120.164 56.9437 121.742 60.9434C123.308 64.929 121.718 69.5789 118.185 71.3455Z" fill="#D8CFF7"/>
<path d="M110.472 93.1109C110.024 93.1957 109.577 92.8141 109.565 92.3053C109.306 86.7933 112.756 81.8325 117.703 80.9138C122.649 80.0093 127.336 83.4578 128.667 88.7719C128.796 89.2807 128.49 89.7895 128.042 89.8602L110.472 93.1109Z" fill="#522CD5"/>
<path d="M119.057 238.995L125.44 244.38L115.041 297.96L92.3119 278.837C91.3344 278.017 91.2049 276.463 92.0175 275.36L119.057 238.995Z" fill="#522CD5"/>
<path d="M127.772 292.221C128.36 294.129 127.289 295.967 126.182 297.465L122.767 302.058C122.154 302.878 121.059 303.047 120.329 302.426L112.297 295.656C111.473 294.949 111.355 293.635 112.05 292.702L115.394 287.783C116.678 286.059 117.279 284.787 116.525 282.229C112.061 267.121 113.651 253.086 121.33 240.917L127.171 245.85C123.579 252.365 120.093 267.149 127.772 292.221Z" fill="url(#paint10_linear_118_5)"/>
<path d="M120.317 302.426C121.047 303.047 122.142 302.878 122.755 302.058L126.17 297.465C126.9 296.475 127.607 295.359 127.842 294.158L116.796 284.844C116.654 285.904 116.136 286.766 115.382 287.783L112.038 292.702C111.343 293.635 111.461 294.949 112.285 295.656L120.317 302.426Z" fill="url(#paint11_radial_118_5)"/>
<path d="M170.493 153.23C172.817 152.689 174.116 148.629 173.394 144.162C172.672 139.694 170.203 136.511 167.879 137.052C165.555 137.593 164.256 141.653 164.978 146.121C165.7 150.588 168.169 153.771 170.493 153.23Z" fill="#512BD4"/>
<path d="M168.59 141.079C169.32 139.935 170.427 139.285 171.569 139.2C172.429 140.5 173.1 142.267 173.418 144.302C173.607 145.574 173.642 146.789 173.524 147.92C172.241 148.598 170.698 148.485 169.473 147.468C167.683 145.984 167.283 143.115 168.59 141.079Z" fill="#8065E0"/>
<path d="M85.658 204.171C81.3242 197.231 80.9591 182.957 87.0241 166.929C88.1547 163.933 97.6232 168.258 96.4926 171.254C90.2156 187.917 92.7829 196.369 93.5955 197.415C95.7625 200.227 102.275 200.1 109.777 197.104C112.321 196.086 115.147 197.853 116.077 201.033C117.008 204.227 115.7 207.633 113.157 208.637C106.267 211.379 93.6544 214.643 86.6355 205.57C86.2822 205.132 85.9642 204.665 85.658 204.171Z" fill="url(#paint12_linear_118_5)"/>
<path d="M125.357 186.207L111.331 191.691C109.023 192.596 107.798 195.691 108.599 198.616L108.74 199.139C109.541 202.051 112.073 203.69 114.381 202.786L128.408 197.302C130.716 196.397 131.941 193.302 131.14 190.377L130.998 189.854C130.198 186.928 127.666 185.303 125.357 186.207Z" fill="#8A6FE8"/>
<path d="M113.498 214.205L122.178 220.438C124.498 222.078 127.395 221.23 128.655 218.53C129.915 215.831 129.044 212.311 126.724 210.672L117.832 204.284L113.498 214.205Z" fill="#8A6FE8"/>
<path d="M116.925 212.933L130.539 215.011C133.165 215.407 135.462 213.174 135.65 210.036C135.839 206.898 133.86 204.044 131.234 203.662L121.106 202.079L116.925 212.933Z" fill="#8A6FE8"/>
<path d="M117.102 207.789L130.61 206.121C133.224 205.81 135.014 202.998 134.614 199.86C134.214 196.722 131.776 194.433 129.173 194.744L115.418 196.426L117.102 207.789Z" fill="#8A6FE8"/>
<path d="M108.375 193.655C112.462 189.472 118.786 190.221 122.507 195.337C126.229 200.454 125.911 207.987 121.824 212.184C117.738 216.368 111.414 215.619 107.692 210.502C103.971 205.386 104.277 197.839 108.375 193.655Z" fill="url(#paint13_radial_118_5)"/>
<path d="M93.2423 175.551C98.8098 175.551 103.323 170.406 103.323 164.06C103.323 157.714 98.8098 152.57 93.2423 152.57C87.6747 152.57 83.1614 157.714 83.1614 164.06C83.1614 170.406 87.6747 175.551 93.2423 175.551Z" fill="url(#paint14_radial_118_5)"/>
<path d="M58.3713 132.077C57.0406 151.99 61.6453 197.5 64.142 213.612C66.8977 231.363 72.4092 243.193 83.1025 243.193L113.204 244.592C114.723 244.592 115.547 242.458 114.546 241.073C100.073 221.06 66.25 169.304 58.3713 132.077Z" fill="#1BA6C5"/>
<path d="M310.323 325.746C309.039 325.392 194.51 325.392 193.215 325.76C190.506 326.523 190.035 329.039 192.202 330.099C192.226 330.113 192.249 330.113 192.273 330.127C196.783 332.572 221.726 334.452 251.816 334.452C281.729 334.452 306.542 332.6 311.277 330.169C311.288 330.169 311.288 330.169 311.3 330.169C311.336 330.155 311.359 330.141 311.394 330.127C311.406 330.127 311.406 330.113 311.418 330.113C313.573 328.982 312.984 326.481 310.323 325.746Z" fill="#1BA6C5"/>
<path d="M272.826 322.142C264.558 316.799 255.243 293.324 255.243 267.573C255.243 245.638 255.855 199.111 288.194 193.048L254.748 184.441L252.817 184.723L217.44 193.062C249.779 199.111 250.391 245.652 250.391 267.587C250.391 293.098 238.885 316.771 230.606 322.17C207.794 322.905 191.554 324.77 191.554 326.961C191.554 329.788 218.535 332.091 251.828 332.091C285.109 332.091 312.101 329.802 312.101 326.961C312.089 324.756 295.755 322.877 272.826 322.142Z" fill="url(#paint15_linear_118_5)"/>
<path d="M352.519 184.455C350.375 184.002 154.375 184.172 152.844 184.582C149.523 185.486 148.204 188.652 153.68 189.896H153.692C164.162 192.581 204.603 194.588 252.899 194.588C302.432 194.588 343.698 192.482 352.837 189.698H352.848C357.83 188.384 356.935 185.402 352.519 184.455Z" fill="#57CACF"/>
<path d="M252.899 191.79C309.147 191.79 354.745 189.075 354.745 185.727C354.745 182.378 309.147 179.663 252.899 179.663C196.652 179.663 151.054 182.378 151.054 185.727C151.054 189.075 196.652 191.79 252.899 191.79Z" fill="#9FE4EB"/>
<path d="M169.897 179.918L228.698 173.756C228.698 173.756 224.364 183.635 223.929 183.635C223.505 183.649 169.897 179.918 169.897 179.918Z" fill="#C8C6C4"/>
<path d="M262.262 184.61H173.807C171.652 184.61 169.909 182.518 169.909 179.932H266.172C266.16 182.504 264.417 184.61 262.262 184.61Z" fill="#605D5A"/>
<path d="M219.642 184.61H173.807C171.652 184.61 169.909 182.518 169.909 179.932H266.172H223.552C223.54 182.504 221.785 184.61 219.642 184.61Z" fill="#797673"/>
<path d="M280.787 96.4747L236.388 97.0542C235.34 97.0683 234.445 97.9587 234.245 99.1883L220.619 179.918H266.136L283.448 100.545C283.884 98.4816 282.565 96.4605 280.787 96.4747Z" fill="#B3AFAB"/>
<path d="M280.787 96.4747L239.274 97.0542C238.226 97.0683 237.331 97.9587 237.13 99.1883L223.505 179.918H266.125L283.436 100.545C283.884 98.4816 282.565 96.4605 280.787 96.4747Z" fill="#737373"/>
<path d="M243.419 190.334H231.289L229.087 157.573H245.633L243.419 190.334Z" fill="white"/>
<path d="M245.197 164.074L245.633 157.573H229.087L229.523 164.074H245.197Z" fill="#E1DFDD"/>
<path d="M246.528 159.693H227.85C227.214 159.693 226.731 158.986 226.861 158.237L227.615 154.011C227.709 153.46 228.121 153.05 228.604 153.05H245.763C246.234 153.05 246.646 153.446 246.752 154.011L247.506 158.237C247.647 158.986 247.164 159.693 246.528 159.693Z" fill="#605D5A"/>
<path d="M145.708 6.13443C144.601 6.57257 143.505 7.0955 142.434 7.70323C140.962 8.55123 139.607 9.52643 138.347 10.6288L140.608 16.4659C139.36 17.7238 138.265 19.1371 137.346 20.6635L131.352 19.9427C129.997 22.7976 129.091 25.8787 128.667 29.0446L133.978 31.7158C133.86 33.8216 134.025 35.9699 134.484 38.0616C133.189 39.0792 131.01 40.7187 129.621 41.7646C129.974 42.9659 130.41 44.1531 130.916 45.312C131.623 46.9091 132.471 48.3931 133.401 49.7499L138.83 47.2059C140.008 48.6616 141.362 49.8912 142.822 50.9088L141.868 57.4667C144.424 58.8659 147.203 59.7563 150.065 60.0955L152.856 54.0606C154.469 54.0606 156.083 53.8344 157.696 53.3822L160.911 58.7104C162.077 58.2582 163.231 57.7211 164.362 57.071C165.905 56.1806 167.33 55.1488 168.637 53.9899L166.305 48.1811C167.589 46.8667 168.708 45.3968 169.638 43.7998L175.397 44.9163C176.833 41.9059 177.776 38.6411 178.176 35.2915C176.492 34.599 174.137 33.6096 172.806 33.016C172.912 31.0939 172.782 29.1435 172.405 27.2355L177.352 23.688C176.963 22.2606 176.468 20.8472 175.856 19.4622C175.102 17.7662 174.207 16.1974 173.194 14.7558L167.989 17.6107C166.753 16.0702 165.328 14.784 163.773 13.7382L165.045 7.37817C162.572 6.00723 159.91 5.11683 157.143 4.73523L154.811 10.7419C152.856 10.643 150.878 10.8691 148.911 11.4486L145.708 6.13443ZM163.29 26.6843C165.964 32.691 163.691 40.111 158.214 43.2627C152.75 46.4144 146.143 44.0966 143.482 38.0899C140.808 32.0832 143.081 24.6632 148.558 21.5115C154.034 18.3598 160.629 20.6776 163.29 26.6843Z" fill="#A7A4A0"/>
<path d="M442.681 99.3578H393.431C391.523 99.3578 389.969 97.4922 389.969 95.2026V52.6613C389.969 50.3717 391.523 48.5061 393.431 48.5061H442.681C444.589 48.5061 446.144 50.3717 446.144 52.6613V95.2026C446.144 97.5064 444.589 99.3578 442.681 99.3578Z" fill="#84817D"/>
<path d="M389.969 88.9557V95.7114C389.969 97.7325 391.335 99.3578 393.007 99.3578H443.058C444.754 99.3578 446.144 97.7042 446.144 95.6549V88.9557H389.969Z" fill="#C5D43B"/>
<path d="M411.261 77.4795V59.3464C411.261 57.7776 412.674 56.8024 413.805 57.5798L426.901 66.6533C428.031 67.4307 428.031 69.3952 426.901 70.1725L413.793 79.2462C412.674 80.0235 411.261 79.0483 411.261 77.4795Z" fill="white"/>
<path d="M92.3001 82.0304H36.4078C34.4881 82.0304 32.9336 80.1648 32.9336 77.861V33.765C32.9336 31.4613 34.4881 29.5957 36.4078 29.5957H92.3001C94.2197 29.5957 95.7743 31.4613 95.7743 33.765V77.861C95.7743 80.1648 94.2197 82.0304 92.3001 82.0304Z" fill="#C5D43B"/>
<path d="M95.7741 39.6585V32.4505C95.7741 30.8817 94.7141 29.6097 93.4069 29.6097H35.3123C34.0051 29.6097 32.9452 30.8817 32.9452 32.4505V39.6585H95.7741Z" fill="#84817D"/>
<path d="M43.2618 33.7368H38.3274V36.7613H43.2618V33.7368Z" fill="#CCCAC7"/>
<path d="M51.3053 33.7368H46.3709V36.7613H51.3053V33.7368Z" fill="#CCCAC7"/>
<path d="M57.6176 68.2222L43.2854 60.6608V58.9083L57.6176 50.3293V53.0005L45.9469 59.6432L57.6176 65.5227V68.2222Z" fill="white"/>
<path d="M70.1127 46.3861L61.9868 72.561H59.5137L67.6396 46.3861H70.1127Z" fill="white"/>
<path d="M71.9735 65.5227L83.656 59.6856L71.9735 53.0005V50.3293L86.3057 58.9083V60.6608L71.9735 68.2222V65.5227Z" fill="white"/>
<path d="M269.622 65.0139H225.695V0.0853271H254.583L269.622 17.3421V65.0139Z" fill="#58D0DB"/>
<path d="M254.583 0.0853271V17.3704H269.622V17.3421L254.583 0.0853271Z" fill="#9FE4EB"/>
<path d="M260.213 25.8504H234.481C234.033 25.8504 233.68 25.4122 233.68 24.8893C233.68 24.3664 234.045 23.9282 234.481 23.9282H260.213C260.66 23.9282 261.014 24.3664 261.014 24.8893C261.014 25.4122 260.66 25.8504 260.213 25.8504Z" fill="#1189A5"/>
<path d="M253.783 33.5813H234.481C234.033 33.5813 233.68 33.1432 233.68 32.6202C233.68 32.0832 234.045 31.6592 234.481 31.6592H253.783C254.23 31.6592 254.583 32.0973 254.583 32.6202C254.583 33.1432 254.23 33.5813 253.783 33.5813Z" fill="#1189A5"/>
<path d="M260.213 41.2981H234.481C234.033 41.2981 233.68 40.86 233.68 40.337C233.68 39.8 234.045 39.376 234.481 39.376H260.213C260.66 39.376 261.014 39.8141 261.014 40.337C261.014 40.86 260.66 41.2981 260.213 41.2981Z" fill="#1189A5"/>
<path d="M253.783 49.0149H234.481C234.033 49.0149 233.68 48.5768 233.68 48.0538C233.68 47.5168 234.045 47.0928 234.481 47.0928H253.783C254.23 47.0928 254.583 47.5309 254.583 48.0538C254.583 48.5768 254.23 49.0149 253.783 49.0149Z" fill="#1189A5"/>
<path d="M373.835 8.90442L344.228 17.2431L344.322 54.541C343.58 53.7212 342.532 54.1028 341.437 54.1028C340.377 54.1028 339.505 52.7884 338.764 53.5658L338.693 17.2431L309.086 8.90442L309.122 52.633L337.503 58.8233C338.457 60.6607 339.623 61.2825 341.425 61.2825C343.227 61.2825 344.452 60.5759 345.347 58.8375L373.788 52.746L373.835 8.90442Z" fill="#0769DC"/>
<path d="M369.371 5.03198C369.371 5.03198 347.985 9.61118 345.229 10.6712C342.473 11.717 341.343 13.9642 341.413 18.2184C341.496 22.4866 341.413 54.4138 341.413 54.4138L369.842 47.7712L369.371 5.03198Z" fill="#CAE0FA"/>
<path d="M313.773 5.03198C313.773 5.03198 334.948 9.61118 337.704 10.6712C340.459 11.717 341.59 13.9642 341.519 18.2184C341.437 22.4866 341.413 54.4138 341.413 54.4138L313.09 47.856L313.773 5.03198Z" fill="#A3C9F6"/>
<path d="M336.208 18.5152C336.173 18.5152 336.137 18.5152 336.102 18.5011L318.92 14.5013C318.637 14.4307 318.449 14.1056 318.496 13.7523C318.555 13.3989 318.837 13.1869 319.12 13.2435L336.302 17.2432C336.585 17.3139 336.773 17.6389 336.726 17.9923C336.679 18.3032 336.455 18.5152 336.208 18.5152Z" fill="#B3AFAB"/>
<path d="M336.208 24.5359C336.173 24.5359 336.137 24.5359 336.102 24.5218L318.908 20.5221C318.625 20.4514 318.437 20.1263 318.484 19.773C318.543 19.4197 318.825 19.2077 319.108 19.2642L336.302 23.2639C336.585 23.3346 336.773 23.6597 336.726 24.013C336.679 24.3239 336.455 24.5359 336.208 24.5359Z" fill="#B3AFAB"/>
<path d="M336.208 30.5427C336.173 30.5427 336.137 30.5427 336.102 30.5286L318.908 26.5288C318.625 26.4582 318.437 26.1331 318.484 25.7798C318.543 25.4264 318.825 25.2003 319.108 25.271L336.302 29.2707C336.585 29.3414 336.773 29.6664 336.726 30.0198C336.679 30.3307 336.455 30.5427 336.208 30.5427Z" fill="#B3AFAB"/>
<path d="M336.208 36.5493C336.173 36.5493 336.137 36.5493 336.102 36.5352L318.92 32.5354C318.637 32.4648 318.449 32.1397 318.496 31.7864C318.555 31.433 318.837 31.2069 319.12 31.2776L336.302 35.2773C336.585 35.348 336.773 35.673 336.726 36.0264C336.679 36.3373 336.455 36.5493 336.208 36.5493Z" fill="#B3AFAB"/>
<path d="M346.642 18.5152C346.677 18.5152 346.713 18.5152 346.748 18.5011L363.93 14.5013C364.213 14.4307 364.401 14.1056 364.354 13.7523C364.295 13.3989 364.013 13.1869 363.73 13.2435L346.548 17.2432C346.265 17.3139 346.077 17.6389 346.124 17.9923C346.171 18.3032 346.395 18.5152 346.642 18.5152Z" fill="#B3AFAB"/>
<path d="M346.642 24.5359C346.677 24.5359 346.713 24.5359 346.748 24.5218L363.942 20.5221C364.225 20.4514 364.413 20.1263 364.366 19.773C364.307 19.4197 364.025 19.2077 363.742 19.2642L346.548 23.2639C346.265 23.3346 346.077 23.6597 346.124 24.013C346.171 24.3239 346.395 24.5359 346.642 24.5359Z" fill="#B3AFAB"/>
<path d="M346.642 30.5427C346.677 30.5427 346.713 30.5427 346.748 30.5286L363.942 26.5288C364.225 26.4582 364.413 26.1331 364.366 25.7798C364.307 25.4264 364.025 25.2003 363.742 25.271L346.548 29.2707C346.265 29.3414 346.077 29.6664 346.124 30.0198C346.171 30.3307 346.395 30.5427 346.642 30.5427Z" fill="#B3AFAB"/>
<path d="M346.642 36.5493C346.677 36.5493 346.713 36.5493 346.748 36.5352L363.93 32.5354C364.213 32.4648 364.401 32.1397 364.354 31.7864C364.295 31.433 364.013 31.2069 363.73 31.2776L346.548 35.2773C346.265 35.348 346.077 35.673 346.124 36.0264C346.171 36.3373 346.395 36.5493 346.642 36.5493Z" fill="#B3AFAB"/>
<path d="M339.435 55.2336C340.071 54.7672 340.801 54.4986 341.602 54.4986C342.332 54.4986 343.027 54.7389 343.627 55.1346L370.549 49.9477L370.796 9.55462L369.289 5.01782L369.136 46.9514C369.136 46.9514 347.043 51.361 345.064 51.8981C343.086 52.4493 341.46 54.3573 341.46 54.3573C341.46 54.3573 340.683 52.7602 338.198 51.997C335.713 51.2338 313.785 46.7536 313.785 46.7536L313.844 5.10262L312.289 9.85143L312.384 49.6085L339.435 55.2336Z" fill="#4995EE"/>
<defs>
<radialGradient id="paint0_radial_118_5" cx="0" cy="0" r="1" gradientUnits="userSpaceOnUse" gradientTransform="translate(228.703 198.591) rotate(1.86702) scale(326.019 226.028)">
<stop offset="0.1821" stop-color="#E1EFF9"/>
<stop offset="0.9144" stop-color="#B8D6F7"/>
</radialGradient>
<radialGradient id="paint1_radial_118_5" cx="0" cy="0" r="1" gradientUnits="userSpaceOnUse" gradientTransform="translate(83.556 126.714) scale(57.5954 69.1206)">
<stop offset="0.0613" stop-color="#1BA6C5"/>
<stop offset="0.8867" stop-color="#57CACF"/>
</radialGradient>
<linearGradient id="paint2_linear_118_5" x1="131.272" y1="244.537" x2="131.272" y2="206.39" gradientUnits="userSpaceOnUse">
<stop offset="0.0613" stop-color="#1BA6C5"/>
<stop offset="0.8867" stop-color="#57CACF"/>
</linearGradient>
<linearGradient id="paint3_linear_118_5" x1="144.654" y1="196.347" x2="145.973" y2="244.34" gradientUnits="userSpaceOnUse">
<stop offset="0.252" stop-color="#522CD5"/>
<stop offset="0.5558" stop-color="#8A6FE8"/>
</linearGradient>
<linearGradient id="paint4_linear_118_5" x1="144.986" y1="241.623" x2="167.369" y2="296.582" gradientUnits="userSpaceOnUse">
<stop stop-color="#522CD5"/>
<stop offset="0.4397" stop-color="#8A6FE8"/>
</linearGradient>
<radialGradient id="paint5_radial_118_5" cx="0" cy="0" r="1" gradientUnits="userSpaceOnUse" gradientTransform="translate(158.227 274.143) rotate(12.299) scale(17.8981 20.1239)">
<stop offset="0.034" stop-color="#522CD5"/>
<stop offset="0.9955" stop-color="#8A6FE8"/>
</radialGradient>
<linearGradient id="paint6_linear_118_5" x1="122.454" y1="200.549" x2="139.576" y2="240.595" gradientUnits="userSpaceOnUse">
<stop offset="0.252" stop-color="#522CD5"/>
<stop offset="0.5558" stop-color="#8A6FE8"/>
</linearGradient>
<radialGradient id="paint7_radial_118_5" cx="0" cy="0" r="1" gradientUnits="userSpaceOnUse" gradientTransform="translate(136.428 124.419) rotate(169.778) scale(54.8536 62.0878)">
<stop offset="0.4744" stop-color="#A08BE8"/>
<stop offset="0.8618" stop-color="#8065E0"/>
</radialGradient>
<radialGradient id="paint8_radial_118_5" cx="0" cy="0" r="1" gradientUnits="userSpaceOnUse" gradientTransform="translate(173.372 120.105) rotate(169.778) scale(56.8459 64.3428)">
<stop offset="0.0933" stop-color="#E1DFDD"/>
<stop offset="0.6573" stop-color="white"/>
</radialGradient>
<radialGradient id="paint9_radial_118_5" cx="0" cy="0" r="1" gradientUnits="userSpaceOnUse" gradientTransform="translate(199.787 174.293) rotate(-70.8107) scale(11.951 10.0074)">
<stop stop-color="#8065E0"/>
<stop offset="1" stop-color="#512BD4"/>
</radialGradient>
<linearGradient id="paint10_linear_118_5" x1="126.405" y1="241.293" x2="116.918" y2="301.712" gradientUnits="userSpaceOnUse">
<stop stop-color="#522CD5"/>
<stop offset="0.4397" stop-color="#8A6FE8"/>
</linearGradient>
<radialGradient id="paint11_radial_118_5" cx="0" cy="0" r="1" gradientUnits="userSpaceOnUse" gradientTransform="translate(127.342 281.073) rotate(40.1562) scale(17.0236 18.162)">
<stop offset="0.034" stop-color="#522CD5"/>
<stop offset="0.9955" stop-color="#8A6FE8"/>
</radialGradient>
<linearGradient id="paint12_linear_118_5" x1="80.3734" y1="174.942" x2="117.327" y2="203.949" gradientUnits="userSpaceOnUse">
<stop offset="0.2495" stop-color="#967FE6"/>
<stop offset="0.6748" stop-color="#8A6FE8"/>
</linearGradient>
<radialGradient id="paint13_radial_118_5" cx="0" cy="0" r="1" gradientUnits="userSpaceOnUse" gradientTransform="translate(119.471 203.587) rotate(93.8335) scale(11.8931 10.052)">
<stop stop-color="#8065E0"/>
<stop offset="1" stop-color="#512BD4"/>
</radialGradient>
<radialGradient id="paint14_radial_118_5" cx="0" cy="0" r="1" gradientUnits="userSpaceOnUse" gradientTransform="translate(90.8696 160.639) rotate(-10.2219) scale(10.1167 11.4509)">
<stop stop-color="#8065E0"/>
<stop offset="1" stop-color="#512BD4"/>
</radialGradient>
<linearGradient id="paint15_linear_118_5" x1="251.82" y1="184.444" x2="251.82" y2="332.079" gradientUnits="userSpaceOnUse">
<stop offset="0.0613" stop-color="#1BA6C5"/>
<stop offset="0.252" stop-color="#57CACF"/>
</linearGradient>
</defs>
</svg>
